<?xml version="1.0" encoding="utf-8"?>
<!-- Generator: Adobe Illustrator 19.1.0, SVG Export Plug-In . SVG Version: 6.00 Build 0)  -->
<svg version="1.1" id="레이어_1" xmlns="http://www.w3.org/2000/svg" xmlns:xlink="http://www.w3.org/1999/xlink" x="0px"
	 y="0px" viewBox="10 -10 30 30" style="enable-background:new 10 -10 30 30;" xml:space="preserve">
<style type="text/css">
	.st0{fill:#4DACE2;}
	.st1{fill:none;stroke:#FFFFFF;stroke-linecap:round;stroke-miterlimit:10;}
	.st2{fill:#FFFFFF;}
	.st3{fill:none;stroke:#4DACE2;stroke-width:0.5;stroke-miterlimit:10;}
	.st4{fill:none;}
	.st5{font-family:'HaanYGodic24';}
	.st6{font-size:14px;}
	.st7{fill:#DC2B15;}
</style>
<rect x="44.8" y="-7.8" class="st4" width="18.5" height="6.5"/>
<rect x="10" y="-10" class="st0" width="30" height="30"/>
<line class="st1" x1="26.7" y1="-0.7" x2="28.7" y2="-0.7"/>
<line class="st1" x1="26.7" y1="1.4" x2="28.7" y2="1.4"/>
<line class="st1" x1="26.7" y1="3.5" x2="28.7" y2="3.5"/>
<line class="st1" x1="26.7" y1="5.5" x2="28.7" y2="5.5"/>
<line class="st1" x1="26.7" y1="7.6" x2="28.7" y2="7.6"/>
<line class="st1" x1="26.7" y1="9.7" x2="28.7" y2="9.7"/>
<line class="st1" x1="26.7" y1="11.8" x2="28.7" y2="11.8"/>
<path class="st2" d="M57.7-24.7h-2.1l-0.1-0.5c0-0.3-0.2-0.5-0.5-0.5h-2.1c-0.3,0-0.5,0.2-0.5,0.5l-0.1,0.5h-2.1
	c-0.2,0-0.3,0.1-0.3,0.3v4.3c0,0.2,0.2,0.3,0.3,0.3h7.4c0.2,0,0.3-0.2,0.3-0.3v-4.3C58-24.5,57.9-24.7,57.7-24.7z M54-20.2
	c-1.1,0-2-0.9-2-2c0-1.1,0.9-2,2-2c1.1,0,2,0.9,2,2S55.1-20.2,54-20.2z M57.6-23.8h-1.7v-0.5h1.7V-23.8z"/>
<g>
	<g id="XMLID_1_">
		<g>
			<polygon class="st2" points="26,-6.2 26,16.7 15,13.9 15,-0.7 			"/>
		</g>
		<g>
			<line class="st1" x1="26" y1="-6.2" x2="15" y2="-0.7"/>
			<line class="st1" x1="15" y1="-0.7" x2="15" y2="13.9"/>
			<line class="st1" x1="15" y1="13.9" x2="26" y2="16.7"/>
			<line class="st1" x1="26" y1="16.7" x2="26" y2="-6.2"/>
		</g>
	</g>
</g>
<g>
	<g id="XMLID_2_">
		<g>
		</g>
		<g>
			<line class="st1" x1="26.3" y1="-3.6" x2="31" y2="-3.6"/>
			<line class="st1" x1="31" y1="-3.6" x2="31" y2="14.8"/>
			<line class="st1" x1="31" y1="14.8" x2="26.3" y2="14.8"/>
		</g>
	</g>
</g>
<line class="st3" x1="26.7" y1="-8.4" x2="26.7" y2="19"/>
<g>
	<rect x="9.2" y="0" transform="matrix(0.9669 -0.2552 0.2552 0.9669 -0.8053 4.8466)" class="st4" width="18.2" height="11.1"/>
	<text transform="matrix(1 0 0 1 16.4784 9.0429)" class="st0 st5 st6">o</text>
	<rect x="18" y="0.2" transform="matrix(0.9669 -0.2552 0.2552 0.9669 -0.5562 7.1004)" class="st4" width="18.2" height="11.1"/>
	<text transform="matrix(1 0 0 1 25.288 9.2096)" class="st7 st5 st6">x</text>
</g>
<circle class="st2" cx="79.8" cy="23.5" r="1"/>
</svg>
