<?xml version="1.0" encoding="utf-8"?>
<!-- Generator: Adobe Illustrator 19.1.0, SVG Export Plug-In . SVG Version: 6.00 Build 0)  -->
<svg version="1.1" id="레이어_1" xmlns="http://www.w3.org/2000/svg" xmlns:xlink="http://www.w3.org/1999/xlink" x="0px"
	 y="0px" viewBox="-134 36 30 30" style="enable-background:new -134 36 30 30;" xml:space="preserve">
<style type="text/css">
	.st0{fill:#FFFFFF;stroke:#FFFFFF;stroke-miterlimit:10;}
</style>
<g>
	<path class="st0" d="M-109.4,46.3h-11.1c-0.4,0-0.8-0.1-1.1-0.4c-0.3-0.3-0.4-0.7-0.4-1.1v-1c0-0.4-0.1-0.8-0.4-1.1
		c-0.3-0.3-0.7-0.4-1.1-0.4h-5.1c-0.4,0-0.8,0.1-1.1,0.4c-0.3,0.3-0.4,0.7-0.4,1.1V59c0,0.4,0.1,0.8,0.4,1.1
		c0.3,0.3,0.7,0.4,1.1,0.4h19.2c0.4,0,0.8-0.1,1.1-0.4c0.3-0.3,0.4-0.7,0.4-1.1V47.8c0-0.4-0.1-0.8-0.4-1.1
		C-108.6,46.5-109,46.3-109.4,46.3z"/>
	<path class="st0" d="M-106.9,45.3c-0.7-0.7-1.5-1-2.5-1H-120v-0.5c0-1-0.3-1.8-1-2.5c-0.7-0.7-1.5-1-2.5-1h-5.1c-1,0-1.8,0.3-2.5,1
		c-0.7,0.7-1,1.5-1,2.5V59c0,1,0.3,1.8,1,2.5s1.5,1,2.5,1h19.2c1,0,1.8-0.3,2.5-1c0.7-0.7,1-1.5,1-2.5V47.8
		C-105.8,46.9-106.2,46-106.9,45.3z M-107.9,59c0,0.4-0.1,0.8-0.4,1.1c-0.3,0.3-0.7,0.4-1.1,0.4h-19.2c-0.4,0-0.8-0.1-1.1-0.4
		c-0.3-0.3-0.4-0.7-0.4-1.1V43.8c0-0.4,0.1-0.8,0.4-1.1c0.3-0.3,0.7-0.4,1.1-0.4h5.1c0.4,0,0.8,0.1,1.1,0.4c0.3,0.3,0.4,0.7,0.4,1.1
		v1c0,0.4,0.1,0.8,0.4,1.1c0.3,0.3,0.7,0.4,1.1,0.4h11.1c0.4,0,0.8,0.1,1.1,0.4c0.3,0.3,0.4,0.7,0.4,1.1V59z"/>
</g>
</svg>
