<?xml version="1.0" encoding="utf-8"?>
<!-- Generator: Adobe Illustrator 19.1.0, SVG Export Plug-In . SVG Version: 6.00 Build 0)  -->
<svg version="1.1" id="레이어_1" xmlns="http://www.w3.org/2000/svg" xmlns:xlink="http://www.w3.org/1999/xlink" x="0px"
	 y="0px" viewBox="0 36 300 30" style="enable-background:new 0 36 300 30;" xml:space="preserve">
<style type="text/css">
	.st0{fill:none;stroke:#C72B1D;stroke-miterlimit:10;}
	.st1{fill:#C72B1D;}
	.st2{fill:none;}
	.st3{fill:#FFFFFF;}
	.st4{font-family:'Tunga';}
	.st5{font-size:35.9289px;}
</style>
<g>
	<path class="st0" d="M127.3,63.6h-20.5c-1.7,0-3-1.4-3-3V40.2c0-1.7,1.3-3,3-3h20.5c1.7,0,3,1.3,3,3v20.5
		C130.3,62.3,128.9,63.6,127.3,63.6z"/>
	<path class="st1" d="M95.4,63.6H75c-1.7,0-3-1.4-3-3V40.2c0-1.7,1.3-3,3-3h20.5c1.7,0,3,1.3,3,3v20.5
		C98.4,62.3,97.1,63.6,95.4,63.6z"/>
	<rect x="74.5" y="32.8" class="st2" width="215.6" height="66.5"/>
	<text transform="matrix(1 0 0 1 74.4736 60.7402)"><tspan x="0" y="0" class="st3 st4 st5">O</tspan><tspan x="21.8" y="0" class="st4 st5"> </tspan><tspan x="33" y="0" class="st1 st4 st5">X  Factory</tspan></text>
</g>
</svg>
