<?xml version="1.0" encoding="utf-8"?>
<!-- Generator: Adobe Illustrator 19.1.0, SVG Export Plug-In . SVG Version: 6.00 Build 0)  -->
<svg version="1.1" id="레이어_1" xmlns="http://www.w3.org/2000/svg" xmlns:xlink="http://www.w3.org/1999/xlink" x="0px"
	 y="0px" viewBox="0 0 500 100" style="enable-background:new 0 0 500 100;" xml:space="preserve">
<style type="text/css">
	.st0{fill:#B42223;stroke:#B42223;stroke-width:5;stroke-miterlimit:10;}
	.st1{fill:none;stroke:#B42223;stroke-width:4;stroke-miterlimit:10;}
	.st2{fill:#FFFFFF;}
	.st3{fill:#B42223;}
</style>
<path class="st0" d="M85,84.3H24c-1.6,0-3-1.3-3-3v-61c0-1.6,1.4-3,3-3h61c1.7,0,3,1.4,3,3v61C88,83,86.7,84.3,85,84.3z"/>
<path class="st1" d="M164.6,84.1h-61c-1.7,0-3-1.3-3-3v-61c0-1.6,1.3-3,3-3h61c1.6,0,3,1.4,3,3v61C167.6,82.8,166.3,84.1,164.6,84.1
	z"/>
<path class="st2" d="M75.1,41.8c1,2.5,1.5,4.9,1.6,7.3c0.1,2.9-0.3,5.6-1.1,8.2c-0.8,2.6-2.1,4.9-3.8,6.9c-1.7,2-4,3.6-6.6,4.9
	c-2.7,1.3-5.9,2-9.6,2.2c-2.7,0.2-5.3-0.1-7.9-0.8c-2.6-0.7-5.2-1.9-7.7-3.7c-1.2-0.8-2.4-2-3.6-3.4c-1.2-1.4-2.2-3.1-3-4.9
	c-0.8-1.8-1.4-3.8-1.8-5.9c-0.4-2.1-0.5-4.4-0.2-6.7c0.2-1.9,0.9-3.7,1.9-5.7c1-1.9,2.4-3.7,4-5.3c1.6-1.6,3.4-3,5.5-4.1
	c2.1-1.2,4.4-2,6.7-2.4c4.3-0.7,8.2-0.5,11.7,0.6c3.5,1.1,6.7,3.1,9.6,6C72.7,37,74.1,39.3,75.1,41.8z M69.2,54.7
	c0.5-2,0.7-4.1,0.5-6.3c-0.2-1.9-0.8-3.8-1.8-5.5c-1-1.8-2.3-3.3-3.8-4.6c-1.5-1.3-3.3-2.3-5.3-3c-2-0.7-4.2-1-6.4-0.9
	c-2.1,0.2-4,0.8-5.6,1.8c-1.7,1-3.1,2.3-4.3,3.8c-1.2,1.5-2.1,3-2.7,4.7c-0.6,1.7-1,3.3-1,4.7c-0.1,2.3,0.2,4.2,0.9,5.9
	c0.6,1.7,1.5,3.1,2.5,4.3c1,1.2,2.1,2.2,3.3,3c1.2,0.7,2.4,1.3,3.6,1.6c1.7,0.6,3.5,0.9,5.3,0.9c1.8,0,3.5-0.2,5.1-0.5
	c1.6-0.3,3-0.9,4.3-1.6c1.3-0.7,2.3-1.6,3-2.6C67.8,58.5,68.7,56.7,69.2,54.7z"/>
<path class="st3" d="M150,30c1,0,2,0.3,2.8,0.8c0.8,0.6,1.4,1.4,1.8,2.3c0.3,0.9,0.2,1.8-0.3,2.6c-1,1.4-2,2.7-3.1,4
	c-1.1,1.3-2.2,2.3-3.3,3c-0.5,0.3-1.1,0.8-1.7,1.4c-0.6,0.6-1.3,1.3-2.1,2c-0.7,0.7-1.5,1.5-2.3,2.3c-0.8,0.8-1.6,1.6-2.3,2.2
	c0.7,0.7,1.3,1.4,2,2c0.6,0.6,1.3,1.2,1.8,1.8c0.6,0.6,1.2,1.1,1.7,1.6c0.5,0.5,1.1,1,1.6,1.5c1.2,1.2,2.4,2.4,3.6,3.6
	c1.2,1.2,2.4,2.5,3.7,3.9c0.8,1,1.1,1.9,0.9,2.8c-0.2,0.9-0.7,1.7-1.4,2.3c-0.7,0.6-1.6,0.9-2.7,1c-1,0.1-2-0.2-2.7-1
	c-0.6-0.5-1.3-1.1-2-1.9c-0.7-0.7-1.4-1.5-2.1-2.4c-0.7-0.8-1.4-1.6-2.1-2.3c-0.6-0.7-1.2-1.4-1.6-1.9c-0.2-0.2-0.6-0.5-1.1-1
	c-0.5-0.5-1.1-1-1.7-1.6c-0.6-0.6-1.3-1.3-1.9-1.9c-0.6-0.6-1.2-1.3-1.6-1.8c-0.3,0.3-0.6,0.6-0.9,0.9c-0.3,0.3-0.5,0.6-0.8,0.8
	c-0.3,0.2-0.5,0.4-0.7,0.6c-0.2,0.2-0.3,0.4-0.4,0.5c-0.2,0.2-0.3,0.3-0.4,0.5c-0.1,0.1-0.2,0.3-0.3,0.4c-0.1,0.2-0.3,0.3-0.4,0.5
	c-0.2,0.2-0.4,0.4-0.6,0.6c-0.7,0.8-1.5,1.6-2.2,2.3c-0.7,0.7-1.4,1.5-2.2,2.2c-0.7,0.8-1.5,1.6-2.2,2.3c-0.8,0.7-1.5,1.5-2.3,2.2
	c-0.9,0.8-1.9,1.2-2.9,1.1c-1-0.1-1.9-0.5-2.6-1.1c-0.7-0.6-1.1-1.4-1.4-2.3c-0.2-0.9,0-1.7,0.7-2.4c0.6-0.7,1.3-1.3,1.9-1.9
	c0.6-0.6,1.3-1.2,2-1.8c0.6-0.6,1.3-1.2,1.9-1.9c0.6-0.6,1.3-1.3,2-1.9c0.5-0.5,1-1,1.4-1.4c0.4-0.4,0.8-0.9,1.4-1.4
	c0.5-0.5,1-1,1.6-1.6c0.6-0.6,1.5-1.3,2.4-2.2c-1.4-1.5-2.7-2.9-3.9-4.2c-1.2-1.3-2.4-2.4-3.6-3.4c-0.6-0.5-1.3-1.1-2.1-1.9
	c-0.8-0.7-1.5-1.4-2.2-2.1c-0.7-0.7-1.3-1.3-1.9-1.9c-0.6-0.6-0.9-1-0.9-1.3c-0.6-0.8-0.8-1.6-0.4-2.6c0.3-0.9,0.9-1.7,1.7-2.2
	c0.8-0.6,1.7-0.9,2.8-0.9c1.1,0,2.1,0.5,3,1.5c0.8,1,2,2.2,3.4,3.7c1.4,1.4,2.8,2.8,4.1,4.2c0.4,0.5,0.8,0.9,1.3,1.4
	c0.5,0.5,0.9,1,1.4,1.5c0.5,0.6,0.9,1.1,1.4,1.6c0.5,0.5,1,1,1.5,1.4c0.5-0.5,0.9-1,1.4-1.5c0.5-0.5,0.9-0.9,1.4-1.4
	c0.5-0.5,0.9-0.9,1.4-1.4c0.5-0.5,1-1,1.6-1.6c0.6-0.7,1.1-1.3,1.7-2c0.6-0.6,1.2-1.3,1.7-2c0.6-0.7,1.1-1.4,1.7-2s1.2-1.4,1.8-2.1
	C148,30.4,148.9,30,150,30z"/>
<path class="st3" d="M203.1,38.6c0.8,0,1.6,0,2.4,0c0.7-0.1,1.4-0.1,2.1-0.2c0.6-0.1,1.3-0.1,1.9-0.1c0.9,0.1,1.6,0.4,2,1.1
	c0.5,0.7,0.7,1.4,0.7,2.2c-0.1,0.8-0.3,1.5-0.8,2.2c-0.5,0.6-1.2,0.9-2.1,0.9c-1.9,0-3.4,0-4.6,0c-1.2,0-2.6,0-4.2-0.1
	c0.1,2.2,0.1,4.2,0,6c-0.1,1.8-0.1,3.3-0.2,4.4c-0.1,1-0.2,1.9-0.2,2.7c0,0.9,0,1.7,0.1,2.5c0,0.8,0,1.5,0,2.2
	c0,0.6,0.1,1.2,0.1,1.6c0,1.4,0,2.9,0.1,4.6c0.1,1.7,0.1,2.9,0.1,3.8c0,1.2-0.4,2.1-1.2,2.7c-0.8,0.6-1.7,0.9-2.6,0.8
	c-1,0-1.9-0.3-2.7-0.8c-0.8-0.6-1.1-1.4-1.1-2.6c0-0.9,0-1.8,0-2.8c0-1,0-1.9,0-2.9c0.1-0.9,0.1-1.8,0.1-2.7c0-0.9,0-1.8,0-2.7
	c0-1.2,0-2.3,0-3.4c0-1.1,0-2.6,0-4.5c-0.1-0.6-0.1-1.2,0-1.8c0-0.6,0.1-1.2,0.1-1.9c0-0.7,0-1.4,0-2.2c0-0.8-0.1-1.8-0.2-2.8
	c-1,0-2,0-3,0c-1,0-1.8,0-2.6,0.1c-0.8,0-1.6,0-2.3,0c-0.7,0-1.2,0-1.7,0c-0.8,0-1.5-0.3-1.9-0.9c-0.4-0.6-0.6-1.3-0.5-2.1
	c0-0.7,0.2-1.4,0.6-2.1c0.4-0.7,1.1-1.1,2-1.2c0.5,0,1.1,0,1.6,0c0.6,0,1.3,0,2,0c0.7,0.1,1.6,0.1,2.5,0.1c1,0,2.1-0.1,3.5-0.3
	c0-0.7,0-1.6,0-2.5c0-1,0-1.9,0-2.9c0-1,0-1.9,0-2.7c0-0.9,0-1.6,0-2.2c0.2-2.2,0.9-4.1,2.1-5.8c1.2-1.6,2.7-2.6,4.5-2.8
	c0.5,0,1.4,0,2.8,0c1.4,0,2.4,0,3,0c1.2,0,2.1,0.4,2.7,1.2c0.6,0.8,0.9,1.6,0.9,2.5c0,0.9-0.3,1.7-0.9,2.5c-0.6,0.7-1.5,1-2.6,0.8
	c-0.7-0.1-1.3-0.1-2-0.1c-0.6,0-1.2,0-1.7,0.2c-0.5,0.2-0.9,0.5-1.2,1c-0.3,0.5-0.5,1.3-0.5,2.3c0,0.2,0,0.6,0,1.2
	c0,0.6,0,1.4,0,2.2c0,0.8,0,1.7,0,2.6c0,1,0,1.9,0,2.7C201.4,38.4,202.3,38.5,203.1,38.6z"/>
<path class="st3" d="M257.8,37.1c0.8-0.5,1.7-0.8,2.7-0.8s1.9,0.3,2.8,0.8c0.8,0.5,1.3,1.3,1.4,2.3c-0.1,0.8-0.2,1.6-0.3,2.5
	c-0.1,0.9-0.2,1.8-0.2,2.7c-0.1,0.9-0.1,1.8,0,2.8c0,1,0.1,1.9,0.3,2.8c0.1,1.1,0.1,2.1,0,3.1c0,1-0.1,2-0.2,2.9
	c-0.1,1-0.1,1.9-0.2,2.9c-0.1,1,0,2,0.1,2.9c0.2,2,0.4,4,0.4,6c0,2,0,3.7,0,4.9c-0.1,1.4-0.6,2.4-1.5,3c-0.9,0.7-1.8,1-2.7,1.1
	c-1,0.1-1.9-0.2-2.7-0.7c-0.8-0.5-1.3-1.4-1.3-2.6c0-0.6,0-1.1,0.1-1.5c0-0.3,0-0.7,0-1c0-0.3,0-0.5,0-0.6c-1.9,2.3-4,4.1-6.4,5.3
	c-2.4,1.2-5.4,1.9-9,1.9c-0.6,0.1-1.4,0-2.5-0.1c-1.1-0.1-2.2-0.4-3.5-0.7c-1.3-0.3-2.6-0.8-4-1.4s-2.6-1.3-3.6-2.2
	c-2.9-2-5-4.8-6.3-8.5c-1.3-3.6-1.7-7.3-1.4-11.1c0.2-1.9,0.7-3.7,1.6-5.6c0.9-1.9,2-3.7,3.5-5.3c1.4-1.6,3.1-2.9,5.1-4.1
	c2-1.1,4.2-1.9,6.6-2.3c1.9-0.2,3.5-0.3,4.8-0.3c1.4,0,2.8,0.3,4.5,0.7c1.7,0.5,3.5,1.2,5.4,2.1c1.9,0.9,3.4,2.2,4.4,3.9l0.9-0.3
	c0-0.2,0-0.4,0-0.8c0-0.4,0-0.7,0-1.1c0-0.4,0-0.7,0-1.1c0-0.3,0-0.5,0-0.5C256.6,38.3,257,37.6,257.8,37.1z M255.5,63.1
	c0.9-2,1.2-4.2,1-6.4c0.1-2.2-0.3-4.2-1.2-5.9c-0.9-1.7-2.2-3.1-3.8-4.3c-1.5-1.2-3.3-2.1-5.2-2.6c-2-0.6-3.9-0.8-5.8-0.8
	c-2,0.1-3.9,0.6-5.5,1.6c-1.6,1-3,2.1-4.2,3.6c-1.1,1.5-2,3.1-2.5,4.8c-0.6,1.7-0.8,3.4-0.6,4.9c0.3,2.8,1.1,5.3,2.4,7.5
	c1.3,2.2,3.4,3.8,6.3,4.9c3.2,1.1,6.1,1.5,8.8,1.3c2.6-0.2,5.1-1.5,7.5-3.9C253.7,66.7,254.7,65.2,255.5,63.1z"/>
<path class="st3" d="M313.7,61.9c0.9-0.2,1.7-0.1,2.6,0.3c0.8,0.4,1.4,1,1.9,1.7c0.5,0.7,0.5,1.5,0.2,2.3c-0.3,1.6-1.2,3.2-2.5,4.6
	c-1.4,1.4-2.8,2.6-4.4,3.6c-2.1,1.4-4.4,2.3-7.1,2.9c-2.6,0.6-5.1,0.8-7.5,0.6c-3.5-0.2-6.6-0.9-9.3-2.2c-2.7-1.3-5.2-3.3-7.3-6
	c-0.7-0.8-1.3-1.9-1.9-3.3c-0.6-1.3-1.1-2.8-1.5-4.4c-0.4-1.6-0.6-3.4-0.8-5.2c-0.1-1.8,0-3.7,0.4-5.5c0.3-1.7,1-3.4,2-5
	c1-1.7,2.2-3.2,3.7-4.6c1.5-1.4,3.2-2.6,5.2-3.6c2-1,4.1-1.7,6.5-2.2c2.5-0.3,5-0.4,7.4-0.3c2.5,0.1,4.9,0.7,7.3,1.7
	c2,1,3.8,2.2,5.3,3.4c1.5,1.3,2.7,2.8,3.6,4.7c0.4,1,0.4,1.9,0,2.7c-0.4,0.8-1,1.3-1.7,1.7c-0.8,0.4-1.6,0.5-2.5,0.4
	c-0.8-0.1-1.5-0.6-1.9-1.5c-1.7-2.9-3.7-4.9-6.1-6c-2.4-1.1-5.1-1.5-8.1-1.3c-2.1,0.2-4.1,0.7-5.8,1.5c-1.7,0.8-3.1,1.8-4.2,3.1
	c-1.2,1.3-2.1,2.7-2.7,4.3c-0.6,1.6-0.9,3.2-0.9,4.9c-0.2,4.2,0.5,7.7,2.1,10.4c1.6,2.7,4.5,4.6,8.8,5.5c3.8,1,7.2,0.8,10.3-0.5
	c3.1-1.3,5.5-3.7,7.1-7.4C312.2,62.6,312.8,62.1,313.7,61.9z"/>
<path class="st3" d="M341.6,75.5c-0.9,0.5-1.8,0.8-2.8,0.8c-1-0.1-1.8-0.4-2.7-0.9c-0.8-0.5-1.2-1.3-1.1-2.2c0.2-2,0.3-4.6,0.3-7.7
	c0.1-3.1,0-6-0.2-8.8c-0.2-2.4-0.3-4.6-0.3-6.7c0-2.1,0.1-3.9,0.2-5.5c-1.2,0.1-2.2,0.1-3,0.1c-0.8,0-1.5,0-1.9,0
	c-0.5,0.1-1,0.1-1.4,0.1c-0.4,0-0.9,0-1.6,0c-1-0.1-1.7-0.4-2.1-1c-0.5-0.6-0.7-1.3-0.7-2.1c0-0.7,0.2-1.4,0.7-2.1
	c0.5-0.7,1.2-1.1,2.2-1.3c0.3-0.1,0.7-0.1,1-0.1c0.3,0,0.8,0,1.3,0c0.5,0.1,1.2,0.1,2,0.1c0.8,0,2,0,3.5,0c0-0.7,0-1.5,0-2.6
	c0-1,0-2.1,0-3.1c0-1,0-1.9,0-2.7c0-0.8,0-1.4,0-1.7c-0.3-1.1-0.4-2.2-0.4-3.4c0-1.2,0.1-2.5,0.4-4c0.2-0.9,0.6-1.6,1.4-2.1
	c0.8-0.5,1.6-0.7,2.5-0.7c0.8,0,1.6,0.3,2.4,0.8c0.8,0.5,1.2,1.2,1.4,2.1c0.1,0.8,0.2,1.9,0.1,3.3c0,1.3-0.1,2.7-0.2,4.3
	c-0.1,1.5-0.1,3.1-0.2,4.8c-0.1,1.7-0.1,3.3,0,4.9c1,0.1,1.8,0.2,2.7,0.2s1.6,0,2.3-0.1c0.7,0,1.3,0,1.9,0c0.6,0,1.1,0,1.6,0
	c0.8,0.1,1.5,0.4,1.9,1.1c0.5,0.7,0.7,1.4,0.7,2.2c0.1,0.8-0.1,1.6-0.6,2.2c-0.5,0.6-1.2,1-2.1,1c-0.6,0.1-1.2,0.1-1.9,0.1
	c-0.6,0-1.3,0-1.9-0.1c-0.7,0-1.4,0-2.1,0c-0.7,0-1.5,0-2.2,0c-0.1,0.8-0.1,1.9-0.1,3.3c0,1.4,0,2.8,0,4.3c0,1.5,0,2.8,0,4.1
	c0,1.3,0,2.3,0,2.9c-0.1,1-0.1,2.1,0,3.5c0,1.4,0.1,2.7,0.2,4c0.1,1.4,0.1,2.6,0.1,3.7c0,1.1,0,2,0,2.5
	C342.9,74.1,342.4,75,341.6,75.5z"/>
<path class="st3" d="M403.7,48.7c1,2.5,1.5,4.9,1.6,7.3c0.1,2.9-0.3,5.6-1.1,8.2c-0.8,2.6-2.1,4.9-3.8,6.9c-1.7,2-4,3.6-6.6,4.9
	c-2.7,1.3-5.9,2-9.6,2.2c-2.7,0.2-5.3-0.1-7.9-0.8c-2.6-0.7-5.2-1.9-7.7-3.7c-1.2-0.8-2.4-2-3.6-3.4c-1.2-1.4-2.2-3.1-3-4.9
	c-0.8-1.8-1.4-3.8-1.8-5.9c-0.4-2.1-0.5-4.4-0.2-6.7c0.2-1.9,0.9-3.7,1.9-5.7c1-1.9,2.4-3.7,4-5.3c1.6-1.6,3.4-3,5.5-4.1
	c2.1-1.2,4.4-2,6.7-2.4c4.3-0.7,8.2-0.5,11.7,0.6c3.5,1.1,6.7,3.1,9.6,6C401.3,43.9,402.7,46.2,403.7,48.7z M397.8,61.6
	c0.5-2,0.7-4.1,0.5-6.3c-0.2-1.9-0.8-3.8-1.8-5.5c-1-1.8-2.3-3.3-3.8-4.6c-1.5-1.3-3.3-2.3-5.3-3c-2-0.7-4.2-1-6.4-0.9
	c-2.1,0.2-4,0.8-5.6,1.8c-1.7,1-3.1,2.3-4.3,3.8s-2.1,3-2.7,4.7c-0.6,1.7-1,3.3-1,4.7c-0.1,2.3,0.2,4.2,0.9,5.9
	c0.6,1.7,1.5,3.1,2.5,4.3c1,1.2,2.1,2.2,3.3,3c1.2,0.7,2.4,1.3,3.6,1.6c1.7,0.6,3.5,0.9,5.3,0.9c1.8,0,3.5-0.2,5.1-0.5
	c1.6-0.3,3-0.9,4.3-1.6s2.3-1.6,3-2.6C396.5,65.4,397.3,63.6,397.8,61.6z"/>
<path class="st3" d="M446.3,37.8c0.6,0.8,1,1.6,1.1,2.5c0.1,0.9-0.1,1.7-0.6,2.5c-0.5,0.8-1.4,1.2-2.5,1.3c-0.7,0.1-1.5,0.4-2.5,0.8
	c-1,0.4-1.9,0.8-3,1.4c-1,0.5-2,1-2.9,1.6c-0.9,0.6-1.7,1.1-2.2,1.5c-0.7,0.6-1.6,1.4-2.6,2.5c-1.1,1.1-2.1,2.3-3.1,3.7
	c-1,1.4-1.8,2.8-2.5,4.3c-0.7,1.5-1,2.9-0.8,4.4c0,0.1,0,0.2,0,0.5s0,0.6,0.1,1c0,0.4,0,0.8,0,1.3c0,0.5,0.1,0.9,0.1,1.3
	c0,0.6,0,1,0,1.4c0,0.4,0,0.7,0,1.1c0.1,0.3,0.1,0.7,0.1,1c0,0.3,0,0.7,0,1.2c-0.1,1.4-0.5,2.4-1.4,3c-0.9,0.7-1.8,1-2.8,1
	s-1.9-0.3-2.8-0.9c-0.8-0.6-1.3-1.5-1.4-2.7c-0.1-1-0.2-2.1-0.1-3.1c0-1.1,0.1-2.1,0.2-3.2c0.1-1,0.1-2.1,0.2-3.1
	c0.1-1.1,0.2-2.2,0.2-3.3c0.1-1.2,0.1-2.2,0.1-3.2c0-0.9,0-1.8-0.1-2.7c0-0.8,0-1.7-0.1-2.7c-0.1-0.9-0.1-2-0.1-3.2
	c-0.1-0.8-0.1-1.8-0.1-2.8c0-1-0.1-2-0.1-2.9c0-1,0-1.8,0-2.5c0-0.7,0-1.1,0.1-1.4c0.1-1.1,0.6-1.9,1.4-2.4c0.8-0.5,1.7-0.8,2.7-0.7
	c1,0,1.9,0.3,2.7,0.8c0.8,0.5,1.2,1.3,1.2,2.3c0,0.5,0,1.1,0,1.9c0,0.7,0,1.5,0,2.4c0,0.9,0,1.9,0,2.9c0,1,0,2.1,0,3.1l0.9,0.3
	c0.2-0.4,0.6-1,1.1-1.7c0.5-0.8,1.2-1.6,1.9-2.4c0.7-0.8,1.5-1.7,2.4-2.5c0.9-0.8,1.8-1.6,2.7-2.3c1.2-1,2.6-1.9,4.3-2.8
	c1.7-0.9,3.6-1.4,5.6-1.4C444.8,36.7,445.6,37,446.3,37.8z"/>
<path class="st3" d="M489.1,36c1-0.1,1.9,0.1,2.7,0.5c0.8,0.4,1.5,1,1.9,1.8c0.5,0.8,0.5,1.6,0.2,2.5c-0.5,1-1,2.1-1.7,3.4
	c-0.7,1.2-1.4,2.4-2,3.6c-0.7,1.2-1.3,2.2-1.8,3c-0.5,0.8-0.9,1.4-1,1.6c-0.3,0.6-0.9,1.7-1.8,3.1c-0.9,1.5-1.8,3-2.8,4.7
	c-1,1.6-1.9,3.2-2.7,4.7c-0.8,1.5-1.4,2.5-1.6,3c-0.6,1.4-1.3,2.6-1.9,3.8c-0.6,1.2-1.3,2.3-1.9,3.2c-0.6,1-1.1,1.9-1.6,2.7
	c-0.5,0.8-1,1.6-1.4,2.2c-0.7,1.2-1.3,2.4-2,3.6c-0.6,1.2-1.3,2.4-1.9,3.6c-0.6,1.1-1.2,2.2-1.9,3.2c-0.6,1-1.2,1.8-1.8,2.6
	c-0.7,1-1.6,1.5-2.6,1.6c-1,0.1-1.9-0.1-2.7-0.5c-0.8-0.5-1.4-1.2-1.7-2.1c-0.3-0.9-0.2-1.8,0.5-2.9c0.3-0.8,0.9-2,1.8-3.7
	c0.9-1.7,1.7-3,2.5-4.1c0.5-0.7,1-1.5,1.6-2.4c0.6-0.9,1.1-1.9,1.7-2.9c0.6-1,1.1-1.9,1.7-2.9c0.6-1,1.1-1.9,1.6-2.7
	c-0.2-0.5-0.4-1-0.7-1.6c-0.3-0.6-0.6-1.1-1-1.6c-0.3-0.5-0.6-1-0.8-1.4c-0.3-0.4-0.5-0.8-0.5-1.1c-0.5-0.6-0.9-1.2-1.4-2
	c-0.5-0.8-1-1.6-1.5-2.5c-0.6-0.9-1.1-1.8-1.6-2.7c-0.5-0.9-1-1.8-1.5-2.6c-0.7-1.1-1.4-2.1-2-3c-0.6-0.9-1.3-1.9-1.9-2.8
	c-0.7-1-1.4-2.1-2.1-3.3c-0.7-1.2-1.5-2.7-2.3-4.4c-0.6-1.1-0.7-2.1-0.2-3c0.5-0.9,1.2-1.6,2.1-1.9c0.9-0.5,1.9-0.6,2.9-0.4
	c1,0.2,1.8,0.7,2.4,1.6c0.5,0.7,1,1.6,1.7,2.9c0.7,1.2,1.4,2.5,2.1,3.7c0.7,1.3,1.3,2.5,1.9,3.6c0.6,1.1,1,1.7,1.3,2
	c0.2,0.3,0.7,1.1,1.4,2.2c0.7,1.1,1.4,2.3,2.1,3.6c0.8,1.4,1.6,2.7,2.3,3.9c0.7,1.2,1.3,2.2,1.7,2.9c0.5-0.7,1-1.5,1.5-2.3
	c0.5-0.9,0.9-1.7,1.4-2.6c0.5-0.8,1-1.6,1.4-2.4c0.4-0.8,0.9-1.4,1.3-2c0.7-1,1.4-2.2,2.3-3.7c0.8-1.5,1.7-3,2.5-4.5
	c0.8-1.5,1.5-2.9,2.2-4.2c0.7-1.3,1.2-2.3,1.7-2.9C487.4,36.6,488.2,36.1,489.1,36z"/>
</svg>
