<?xml version="1.0" encoding="utf-8"?>
<!-- Generator: Adobe Illustrator 19.1.0, SVG Export Plug-In . SVG Version: 6.00 Build 0)  -->
<svg version="1.1" id="레이어_1" xmlns="http://www.w3.org/2000/svg" xmlns:xlink="http://www.w3.org/1999/xlink" x="0px"
	 y="0px" viewBox="-134 36 30 30" style="enable-background:new -134 36 30 30;" xml:space="preserve">
<style type="text/css">
	.st0{fill:#FFFFFF;}
</style>
<g id="g3003" transform="matrix(1,0,0,-1,129.08475,1270.2373)">
	<path id="path3005" inkscape:connector-curvature="0" class="st0" d="M-254.5,1208h13v6.5h-13V1208z M-239.4,1208h2.2v15.1
		c0,0.2-0.1,0.4-0.2,0.6c-0.1,0.3-0.2,0.5-0.3,0.6l-4.7,4.7c-0.1,0.1-0.3,0.2-0.6,0.3s-0.5,0.2-0.7,0.2v-7c0-0.4-0.2-0.8-0.5-1.1
		c-0.3-0.3-0.7-0.5-1.1-0.5h-9.7c-0.4,0-0.8,0.2-1.1,0.5c-0.3,0.3-0.5,0.7-0.5,1.1v7h-2.2V1208h2.2v7c0,0.4,0.2,0.8,0.5,1.1
		c0.3,0.3,0.7,0.5,1.1,0.5h14c0.4,0,0.8-0.2,1.1-0.5c0.3-0.3,0.5-0.7,0.5-1.1V1208z M-245.9,1223.6v5.4c0,0.1-0.1,0.3-0.2,0.4
		c-0.1,0.1-0.2,0.2-0.4,0.2h-3.2c-0.1,0-0.3-0.1-0.4-0.2s-0.2-0.2-0.2-0.4v-5.4c0-0.1,0.1-0.3,0.2-0.4s0.2-0.2,0.4-0.2h3.2
		c0.1,0,0.3,0.1,0.4,0.2C-245.9,1223.4-245.9,1223.5-245.9,1223.6z M-235.1,1223.1v-15.7c0-0.4-0.2-0.8-0.5-1.1
		c-0.3-0.3-0.7-0.5-1.1-0.5h-22.7c-0.4,0-0.8,0.2-1.1,0.5c-0.3,0.3-0.5,0.7-0.5,1.1v22.7c0,0.4,0.2,0.8,0.5,1.1
		c0.3,0.3,0.7,0.5,1.1,0.5h15.7c0.4,0,0.9-0.1,1.5-0.3c0.5-0.2,1-0.5,1.3-0.8l4.7-4.7c0.3-0.3,0.6-0.7,0.8-1.3
		S-235.1,1223.6-235.1,1223.1z"/>
</g>
</svg>
