<?xml version="1.0" encoding="utf-8"?>
<!-- Generator: Adobe Illustrator 19.1.0, SVG Export Plug-In . SVG Version: 6.00 Build 0)  -->
<svg version="1.1" id="레이어_1" xmlns="http://www.w3.org/2000/svg" xmlns:xlink="http://www.w3.org/1999/xlink" x="0px"
	 y="0px" viewBox="-134 36 30 30" style="enable-background:new -134 36 30 30;" xml:space="preserve">
<style type="text/css">
	.st0{fill:none;stroke:#FFFFFF;stroke-miterlimit:10;}
	.st1{fill:#FFFFFF;stroke:#FFFFFF;stroke-miterlimit:10;}
</style>
<g>
	<path class="st0" d="M-119.6,46c-0.1-0.1-0.2-0.1-0.3-0.1c-0.1,0-0.2,0-0.3,0.1l-5.1,5.1c-0.1,0.1-0.1,0.2-0.1,0.3
		c0,0.1,0,0.2,0.1,0.3c0.1,0.1,0.2,0.1,0.3,0.1h3.3v5.1c0,0.1,0,0.2,0.1,0.3c0.1,0.1,0.2,0.1,0.3,0.1h2.8c0.1,0,0.2,0,0.3-0.1
		c0.1-0.1,0.1-0.2,0.1-0.3v-5.1h3.3c0.1,0,0.2,0,0.3-0.1c0.1-0.1,0.1-0.2,0.1-0.3c0-0.1,0-0.2-0.1-0.3L-119.6,46z"/>
	<path class="st1" d="M-106.2,52.2c-0.8-1-1.8-1.7-3.1-2c0.4-0.6,0.6-1.3,0.6-2c0-1-0.4-1.9-1.1-2.6c-0.7-0.7-1.6-1.1-2.6-1.1
		c-0.9,0-1.7,0.3-2.4,0.9c-0.6-1.4-1.5-2.5-2.7-3.4c-1.3-0.8-2.6-1.3-4.2-1.3c-2.1,0-3.8,0.7-5.3,2.2c-1.5,1.5-2.2,3.2-2.2,5.3
		c0,0.1,0,0.3,0,0.6c-1.1,0.5-2.1,1.3-2.7,2.4c-0.7,1.1-1,2.2-1,3.5c0,1.8,0.6,3.3,1.9,4.6c1.3,1.3,2.8,1.9,4.6,1.9h15.8
		c1.5,0,2.9-0.5,4-1.6c1.1-1.1,1.6-2.4,1.6-4C-105,54.4-105.4,53.2-106.2,52.2z M-114.5,51.8c-0.1,0.1-0.2,0.1-0.3,0.1h-3.3v5.1
		c0,0.1,0,0.2-0.1,0.3c-0.1,0.1-0.2,0.1-0.3,0.1h-2.8c-0.1,0-0.2,0-0.3-0.1c-0.1-0.1-0.1-0.2-0.1-0.3v-5.1h-3.3
		c-0.1,0-0.2,0-0.3-0.1c-0.1-0.1-0.1-0.2-0.1-0.3c0-0.1,0-0.2,0.1-0.3l5.1-5.1c0.1-0.1,0.2-0.1,0.3-0.1c0.1,0,0.2,0,0.3,0.1l5.1,5.1
		c0.1,0.1,0.1,0.2,0.1,0.3C-114.3,51.6-114.4,51.7-114.5,51.8z"/>
</g>
</svg>
